<?xml version="1.0" standalone="no"?>
<!DOCTYPE svg PUBLIC "-//W3C//DTD SVG 20010904//EN"
 "http://www.w3.org/TR/2001/REC-SVG-20010904/DTD/svg10.dtd">
<svg version="1.0" xmlns="http://www.w3.org/2000/svg"
 width="500.000000pt" height="500.000000pt" viewBox="0 0 500.000000 500.000000"
 preserveAspectRatio="xMidYMid meet">
<metadata>
Created by potrace 1.16, written by Peter Selinger 2001-2019
</metadata>
<g transform="translate(0.000000,500.000000) scale(0.100000,-0.100000)"
fill="white" stroke="none">
<path d="M4635 4904 c-267 -40 -644 -121 -954 -203 -103 -27 -195 -51 -205
-53 -16 -2 -23 10 -42 81 -13 46 -25 85 -27 88 -6 5 -279 -76 -289 -85 -4 -4
2 -43 13 -86 11 -43 18 -84 15 -91 -2 -7 -19 -16 -37 -20 -38 -9 -545 -179
-679 -228 -370 -136 -680 -301 -680 -361 0 -77 458 -28 1040 113 131 31 507
131 592 157 11 3 22 -4 31 -23 14 -26 13 -28 -32 -69 -48 -43 -81 -112 -81
-169 0 -76 45 -155 110 -195 34 -22 39 -30 40 -61 l0 -35 -213 -27 c-117 -15
-235 -35 -262 -44 -71 -26 -146 -99 -180 -175 -27 -60 -28 -65 -21 -182 4 -67
12 -157 19 -201 l12 -79 63 -13 c155 -31 353 -116 505 -215 l77 -51 0 -48 c0
-27 -2 -49 -4 -49 -3 0 -49 30 -103 67 -152 103 -326 177 -513 218 -104 22
-351 31 -459 16 -479 -68 -879 -362 -1086 -796 -173 -364 -178 -804 -14 -1154
21 -46 36 -88 32 -95 -4 -6 -90 -105 -191 -220 -101 -115 -191 -224 -198 -242
-21 -51 -18 -132 9 -184 58 -116 218 -148 316 -64 30 27 296 320 328 363 1 2
22 -14 45 -35 203 -186 459 -307 741 -348 392 -59 810 62 1107 319 l62 53 147
-166 c82 -92 157 -175 167 -184 55 -49 158 -62 230 -29 85 39 139 149 115 237
-14 54 -38 85 -230 302 -88 101 -161 185 -161 188 0 2 13 30 29 62 159 315
178 748 48 1093 -37 98 -83 184 -153 290 -60 89 -64 99 -64 152 0 55 1 57 28
57 15 0 222 24 460 54 481 60 502 65 582 149 98 102 105 169 56 566 -32 260
-38 290 -66 347 -51 105 -151 173 -265 181 -38 3 -194 -12 -419 -41 -197 -25
-363 -43 -367 -40 -20 12 -9 76 18 108 38 45 53 88 53 153 0 66 -27 130 -70
166 -36 30 -96 135 -84 147 5 4 77 29 159 54 609 188 1205 442 1256 537 10 20
9 25 -11 41 -19 15 -40 18 -139 17 -64 -1 -156 -7 -206 -15z"/>
<path d="M313 3605 c-115 -31 -201 -117 -232 -230 -21 -80 -83 -609 -77 -662
15 -130 115 -249 238 -284 38 -10 991 -129 1036 -129 24 0 36 10 73 63 23 34
95 114 159 178 129 130 257 221 413 294 108 51 97 31 118 203 12 106 7 156
-28 229 -30 66 -116 145 -180 167 -26 9 -212 37 -413 62 -900 110 -1016 124
-1035 123 -11 0 -44 -7 -72 -14z"/>
</g>
</svg>
